<svg xmlns="http://www.w3.org/2000/svg" fill="none" viewBox="0 0 128 128">
  <title>Gavin Wang</title>
  <circle cx="64" cy="64" r="60" stroke="currentColor" stroke-width="2" fill="none" opacity="0.5" />
  <path fill="currentColor" d="M58.6 28.4c-12.8 0-22.6 9-25 21.6-2.4 13.2 5 23.6 17 26 9.6 1.8 18.4-1.6 22.6-9l1.2-2.4h-12c-1.6 0-2.8-1.2-2.8-2.8 0-1.6 1.2-2.8 2.8-2.8h19c1.6 0 2.8 1.2 2.8 2.8v23c0 1.6-1.2 2.8-2.8 2.8s-2.8-1.2-2.8-2.8V77c-5 8-13.8 12.4-25 10.2-15.6-3-25-16.4-22-32.2 2.8-15.4 15-25.8 30-25.8 8.6 0 16.2 3.2 21.4 9 1 1.2 1 3-.2 4-1.2 1-3 1-4-.2-4.2-4.6-10.2-7.2-17.2-7.2-.6-.4-1-.4-2-.6-.2 0 0 0 0 0Z" />
  <path fill="currentColor" d="M22.8 90.4l8.4 24.2c.5 1.4 1.7 2.4 3.1 2.4 1.5 0 2.7-1 3.1-2.4l5.7-16.6 5.7 16.6c.5 1.4 1.7 2.4 3.2 2.4 1.4 0 2.6-1 3.1-2.4l8.4-24.2c.6-1.6-.3-3.4-1.9-4-1.6-.6-3.4.3-4 1.9l-5.5 15.8-5.4-15.6c-.4-1.3-1.6-2.1-2.9-2.1-1.4 0-2.6.8-3 2.1l-5.4 15.6-5.5-15.8c-.6-1.6-2.4-2.5-4-1.9-1.6.6-2.5 2.4-1.9 4Z" opacity="0.85" />
  <path fill="currentColor" d="M73.6 90.4l8.4 24.2c.5 1.4 1.7 2.4 3.1 2.4 1.5 0 2.7-1 3.1-2.4L94 98l5.7 16.6c.5 1.4 1.7 2.4 3.2 2.4 1.4 0 2.6-1 3.1-2.4l8.4-24.2c.6-1.6-.3-3.4-1.9-4-1.6-.6-3.4.3-4 1.9l-5.5 15.8-5.4-15.6c-.4-1.3-1.6-2.1-2.9-2.1-1.4 0-2.6.8-3 2.1l-5.4 15.6-5.5-15.8c-.6-1.6-2.4-2.5-4-1.9-1.6.6-2.5 2.4-1.9 4Z" opacity="0.85" />
</svg>
